<mxfile host="app.diagrams.net" modified="2023-12-11T06:02:01.624Z" agent="Mozilla/5.0 (Windows NT 10.0; Win64; x64) AppleWebKit/537.36 (KHTML, like Gecko) Chrome/119.0.0.0 Safari/537.36" version="22.1.7" etag="qCabgFHJu7MbnuGo2e3U" type="github">
  <diagram name="Halaman-1" id="d00D4yqZYG3Xag7LSpv4">
    <mxGraphModel>
      <root>
        <mxCell id="0" />
        <mxCell id="1" parent="0" />
      </root>
    </mxGraphModel>
  </diagram>
</mxfile>
